<svg width="80" height="80" viewBox="0 0 80 80" xmlns="http://www.w3.org/2000/svg">
  <defs>
    <!-- 불꽃 그라디언트 -->
    <linearGradient id="fireGrad" x1="0%" y1="100%" x2="0%" y2="0%">
      <stop offset="0%" style="stop-color:#FF4500;stop-opacity:1" />
      <stop offset="30%" style="stop-color:#FF6B35;stop-opacity:1" />
      <stop offset="70%" style="stop-color:#F7931E;stop-opacity:1" />
      <stop offset="100%" style="stop-color:#FFD700;stop-opacity:1" />
    </linearGradient>
    
    <!-- 불꽃 내부 그라디언트 -->
    <linearGradient id="fireInner" x1="0%" y1="100%" x2="0%" y2="0%">
      <stop offset="0%" style="stop-color:#F7931E;stop-opacity:1" />
      <stop offset="100%" style="stop-color:#FFFF99;stop-opacity:1" />
    </linearGradient>
    
    <!-- 감자 그라디언트 -->
    <radialGradient id="potatoGrad" cx="40%" cy="30%" r="70%">
      <stop offset="0%" style="stop-color:#DEB887;stop-opacity:1" />
      <stop offset="100%" style="stop-color:#A0522D;stop-opacity:1" />
    </radialGradient>
  </defs>
  
  <!-- 큰 불꽃 외곽 (감자를 완전히 감쌈) -->
  <path d="M40 3 Q35 1 30 2 Q25 4 20 8 Q15 12 12 18 Q8 25 6 32 Q4 40 6 47 Q8 54 12 60 Q17 66 23 70 Q30 74 37 76 Q40 77 43 76 Q50 74 57 70 Q63 66 68 60 Q72 54 74 47 Q76 40 74 32 Q72 25 68 18 Q63 12 58 8 Q53 4 48 2 Q43 1 40 3 Z" 
        fill="url(#fireGrad)" stroke="#8B4513" stroke-width="2"/>
  
  <!-- 불꽃 내부 하이라이트 -->
  <path d="M40 8 Q36 6 32 7 Q28 9 24 13 Q20 18 18 23 Q16 28 17 33 Q18 38 20 43 Q25 48 30 50 Q35 52 40 52 Q45 52 50 50 Q55 48 60 43 Q62 38 63 33 Q64 28 62 23 Q60 18 56 13 Q52 9 48 7 Q44 6 40 8 Z" 
        fill="url(#fireInner)"/>
  
  <!-- 감자 몸체 (중앙, 불에 완전히 감싸임) -->
  <ellipse cx="40" cy="45" rx="20" ry="14" fill="url(#potatoGrad)" stroke="#654321" stroke-width="2"/>
  
  <!-- 감자 구멍들 -->
  <circle cx="32" cy="40" r="2.5" fill="#654321"/>
  <circle cx="48" cy="42" r="2" fill="#654321"/>
  <circle cx="36" cy="48" r="2.2" fill="#654321"/>
  <circle cx="44" cy="50" r="1.8" fill="#654321"/>
  <circle cx="50" cy="46" r="1.5" fill="#654321"/>
  <circle cx="35" cy="52" r="1.3" fill="#654321"/>
</svg>
