<svg width="32" height="32" viewBox="0 0 32 32" xmlns="http://www.w3.org/2000/svg">
  <defs>
    <!-- 불꽃 그라디언트 -->
    <linearGradient id="fireGradient" x1="0%" y1="100%" x2="0%" y2="0%">
      <stop offset="0%" style="stop-color:#FF6B35;stop-opacity:1" />
      <stop offset="50%" style="stop-color:#F7931E;stop-opacity:1" />
      <stop offset="100%" style="stop-color:#FFD23F;stop-opacity:1" />
    </linearGradient>
    
    <!-- 감자 그라디언트 -->
    <linearGradient id="potatoGradient" x1="0%" y1="0%" x2="100%" y2="100%">
      <stop offset="0%" style="stop-color:#D2691E;stop-opacity:1" />
      <stop offset="50%" style="stop-color:#CD853F;stop-opacity:1" />
      <stop offset="100%" style="stop-color:#A0522D;stop-opacity:1" />
    </linearGradient>
  </defs>
  
  <!-- 메인 감자 몸체 -->
  <path d="M8 12 Q7 10 9 9 Q12 8 15 10 Q20 9 24 11 Q26 13 27 16 Q26 19 25 21 Q22 24 20 25 Q16 26 14 25 Q12 24 10 22 Q8 20 7 17 Q8 14 8 12 Z" 
        fill="url(#potatoGradient)"/>
  
  <!-- 불꽃 -->
  <path d="M16 8 Q14 6 16 4 Q17 2 18 4 Q19 1 21 3 Q22 5 20 7 Q19 9 17 10 Q16 10 16 8" 
        fill="url(#fireGradient)"/>
  
  <!-- 작은 불꽃 파티클 -->
  <circle cx="12" cy="7" r="1" fill="#FFD23F"/>
  <circle cx="22" cy="6" r="0.8" fill="#FF6B35"/>
</svg>
